<svg width="264" height="90" viewBox="0 0 264 90" fill="none" xmlns="http://www.w3.org/2000/svg">
<path d="M52.9003 2.752V46.464C52.9003 46.8907 52.7509 47.2533 52.4523 47.552C52.1536 47.8507 51.7909 48 51.3643 48H41.7003C41.2736 48 40.9109 47.8507 40.6123 47.552C40.3136 47.2533 40.1643 46.8907 40.1643 46.464V25.856C40.1643 25.4293 39.9723 25.1947 39.5883 25.152C39.2043 25.1093 38.8843 25.2587 38.6283 25.6L27.8763 42.944C27.6629 43.2853 27.3216 43.456 26.8523 43.456C26.3829 43.456 26.0203 43.2853 25.7643 42.944L15.0123 25.6C14.7989 25.2587 14.5003 25.1093 14.1163 25.152C13.7323 25.1947 13.5403 25.4293 13.5403 25.856V46.464C13.5403 46.8907 13.3909 47.2533 13.0923 47.552C12.7936 47.8507 12.4309 48 12.0043 48H2.34025C1.91358 48 1.55092 47.8507 1.25225 47.552C0.953584 47.2533 0.80425 46.8907 0.80425 46.464V2.752C0.80425 2.32533 0.953584 1.96267 1.25225 1.664C1.55092 1.36533 1.91358 1.216 2.34025 1.216H11.3003C11.7269 1.216 12.1749 1.344 12.6443 1.6C13.1136 1.856 13.4549 2.15466 13.6683 2.496L25.9563 20.544C26.2123 20.8853 26.5109 21.056 26.8523 21.056C27.1936 21.056 27.4709 20.8853 27.6843 20.544L39.9723 2.496C40.2283 2.15466 40.5909 1.856 41.0603 1.6C41.5296 1.344 41.9776 1.216 42.4043 1.216H51.3643C51.7909 1.216 52.1536 1.36533 52.4523 1.664C52.7509 1.96267 52.9003 2.32533 52.9003 2.752ZM58.4393 24.576C58.4393 21.248 59.0793 18.112 60.3593 15.168C61.6393 12.224 63.3673 9.664 65.5433 7.488C67.7193 5.26933 70.2793 3.52 73.2233 2.24C76.1673 0.959997 79.3033 0.319996 82.6313 0.319996C85.9593 0.319996 89.0953 0.959997 92.0393 2.24C94.9833 3.52 97.5433 5.26933 99.7193 7.488C101.938 9.664 103.687 12.224 104.967 15.168C106.247 18.112 106.887 21.248 106.887 24.576C106.887 27.904 106.247 31.04 104.967 33.984C103.687 36.928 101.938 39.5093 99.7193 41.728C97.5433 43.904 94.9833 45.632 92.0393 46.912C89.0953 48.192 85.9593 48.832 82.6313 48.832C79.3033 48.832 76.1673 48.192 73.2233 46.912C70.2793 45.632 67.7193 43.904 65.5433 41.728C63.3673 39.5093 61.6393 36.928 60.3593 33.984C59.0793 31.04 58.4393 27.904 58.4393 24.576ZM71.1113 24.576C71.1113 26.1973 71.4099 27.7333 72.0073 29.184C72.6046 30.6347 73.4153 31.9147 74.4393 33.024C75.5059 34.1333 76.7433 35.0293 78.1513 35.712C79.5593 36.352 81.0526 36.672 82.6313 36.672C84.2099 36.672 85.7033 36.352 87.1113 35.712C88.5193 35.0293 89.7566 34.1333 90.8232 33.024C91.8899 31.9147 92.7219 30.6347 93.3193 29.184C93.9166 27.7333 94.2153 26.1973 94.2153 24.576C94.2153 22.9973 93.9166 21.4827 93.3193 20.032C92.7219 18.5387 91.8899 17.2587 90.8232 16.192C89.7566 15.0827 88.5193 14.208 87.1113 13.568C85.7033 12.8853 84.2099 12.544 82.6313 12.544C81.0526 12.544 79.5593 12.8853 78.1513 13.568C76.7433 14.208 75.5059 15.0827 74.4393 16.192C73.4153 17.2587 72.6046 18.5387 72.0073 20.032C71.4099 21.4827 71.1113 22.9973 71.1113 24.576ZM125.416 46.592L106.088 3.008C105.874 2.53866 105.874 2.112 106.088 1.728C106.258 1.344 106.621 1.152 107.176 1.152H117.608C118.034 1.152 118.44 1.30133 118.824 1.6C119.25 1.856 119.57 2.176 119.784 2.56L131.048 28.288C131.261 28.672 131.538 28.864 131.88 28.864C132.221 28.864 132.498 28.672 132.712 28.288L143.912 2.56C144.125 2.176 144.424 1.856 144.808 1.6C145.234 1.30133 145.661 1.152 146.088 1.152H156.712C157.181 1.152 157.522 1.344 157.736 1.728C157.949 2.06933 157.97 2.41066 157.8 2.752L138.28 46.592C138.066 46.976 137.746 47.3173 137.32 47.616C136.936 47.872 136.53 48 136.104 48H127.592C127.165 48 126.738 47.872 126.312 47.616C125.928 47.3173 125.629 46.976 125.416 46.592ZM173.074 48H163.41C162.941 48 162.557 47.8507 162.258 47.552C162.002 47.2533 161.874 46.8907 161.874 46.464V2.752C161.874 2.32533 162.002 1.96267 162.258 1.664C162.557 1.36533 162.941 1.216 163.41 1.216H173.074C173.501 1.216 173.864 1.36533 174.162 1.664C174.461 1.96267 174.61 2.32533 174.61 2.752V46.464C174.61 46.8907 174.461 47.2533 174.162 47.552C173.864 47.8507 173.501 48 173.074 48ZM195.72 14.464V17.152C195.72 17.5787 195.87 17.9413 196.168 18.24C196.467 18.5387 196.83 18.688 197.256 18.688H214.6C215.027 18.688 215.39 18.8373 215.688 19.136C215.987 19.4347 216.136 19.7973 216.136 20.224V29.056C216.136 29.4827 215.987 29.8453 215.688 30.144C215.39 30.4427 215.027 30.592 214.6 30.592H197.256C196.83 30.592 196.467 30.7413 196.168 31.04C195.87 31.3387 195.72 31.7013 195.72 32.128V34.56C195.72 34.9867 195.87 35.3493 196.168 35.648C196.467 35.9467 196.83 36.096 197.256 36.096H217.16C217.587 36.096 217.95 36.2453 218.248 36.544C218.547 36.8427 218.696 37.2053 218.696 37.632V46.464C218.696 46.8907 218.547 47.2533 218.248 47.552C217.95 47.8507 217.587 48 217.16 48H184.584C184.158 48 183.795 47.8507 183.496 47.552C183.198 47.2533 183.048 46.8907 183.048 46.464V2.688C183.048 2.26133 183.198 1.89866 183.496 1.6C183.795 1.30133 184.158 1.152 184.584 1.152H217.16C217.587 1.152 217.95 1.30133 218.248 1.6C218.547 1.89866 218.696 2.26133 218.696 2.688V11.392C218.696 11.8187 218.547 12.1813 218.248 12.48C217.95 12.7787 217.587 12.928 217.16 12.928H197.256C196.83 12.928 196.467 13.0773 196.168 13.376C195.87 13.6747 195.72 14.0373 195.72 14.464ZM232.112 31.936C234.416 33.4293 236.698 34.6027 238.96 35.456C241.221 36.3093 243.333 36.736 245.296 36.736C247.173 36.736 248.602 36.48 249.584 35.968C250.565 35.4133 251.056 34.6027 251.056 33.536C251.056 32.9813 250.842 32.5547 250.416 32.256C249.989 31.9147 249.413 31.6373 248.688 31.424C248.005 31.2107 247.194 31.04 246.256 30.912C245.317 30.784 244.357 30.6133 243.376 30.4C242.437 30.2293 241.328 30.0373 240.048 29.824C238.81 29.568 237.53 29.2267 236.208 28.8C234.885 28.3307 233.562 27.7547 232.24 27.072C230.96 26.3893 229.808 25.5147 228.784 24.448C227.76 23.3813 226.928 22.1227 226.288 20.672C225.69 19.1787 225.392 17.4293 225.392 15.424C225.392 12.48 225.968 10.048 227.12 8.128C228.272 6.208 229.722 4.69333 231.472 3.584C233.264 2.432 235.248 1.64267 237.424 1.216C239.6 0.746665 241.712 0.511997 243.76 0.511997C247.344 0.511997 250.544 1.04533 253.36 2.112C256.218 3.136 258.949 4.65067 261.552 6.656C261.893 6.95466 262.085 7.31733 262.128 7.744C262.17 8.17067 262.064 8.55467 261.808 8.896L256.816 16C256.56 16.3413 256.218 16.5547 255.792 16.64C255.365 16.7253 254.981 16.64 254.64 16.384C252.464 15.0187 250.437 14.0587 248.56 13.504C246.682 12.9067 244.954 12.608 243.376 12.608C242.906 12.608 242.352 12.6293 241.712 12.672C241.114 12.672 240.538 12.7573 239.984 12.928C239.429 13.056 238.96 13.2907 238.576 13.632C238.234 13.9733 238.064 14.4427 238.064 15.04C238.064 15.6373 238.512 16.1707 239.408 16.64C240.304 17.1093 241.328 17.5147 242.48 17.856C243.632 18.1973 244.741 18.4747 245.808 18.688C246.874 18.8587 247.557 18.9653 247.856 19.008C249.392 19.3067 251.077 19.7547 252.912 20.352C254.746 20.9067 256.453 21.76 258.032 22.912C259.653 24.0213 260.997 25.4933 262.064 27.328C263.173 29.12 263.728 31.3813 263.728 34.112C263.728 36.672 263.28 38.8907 262.384 40.768C261.488 42.6027 260.229 44.1173 258.608 45.312C257.029 46.5067 255.109 47.4027 252.848 48C250.629 48.5547 248.154 48.832 245.424 48.832C243.205 48.832 241.136 48.64 239.216 48.256C237.296 47.9147 235.504 47.424 233.84 46.784C232.176 46.144 230.618 45.3973 229.168 44.544C227.76 43.648 226.458 42.7093 225.264 41.728C224.922 41.472 224.73 41.1307 224.688 40.704C224.645 40.2347 224.752 39.8293 225.008 39.488L229.936 32.384C230.192 32.0427 230.533 31.8293 230.96 31.744C231.386 31.6587 231.77 31.7227 232.112 31.936ZM62.0703 68.034V69.798C62.0703 70.078 62.1683 70.316 62.3643 70.512C62.5603 70.708 62.7983 70.806 63.0783 70.806H74.4183C74.6983 70.806 74.9363 70.904 75.1323 71.1C75.3283 71.296 75.4263 71.534 75.4263 71.814V77.694C75.4263 77.974 75.3283 78.212 75.1323 78.408C74.9363 78.604 74.6983 78.702 74.4183 78.702H63.0783C62.7983 78.702 62.5603 78.8 62.3643 78.996C62.1683 79.192 62.0703 79.43 62.0703 79.71V88.992C62.0703 89.272 61.9723 89.51 61.7763 89.706C61.5803 89.902 61.3423 90 61.0623 90H54.7203C54.4403 90 54.2023 89.902 54.0063 89.706C53.8103 89.51 53.7123 89.272 53.7123 88.992V60.264C53.7123 59.984 53.8103 59.746 54.0063 59.55C54.2023 59.354 54.4403 59.256 54.7203 59.256H76.0983C76.3783 59.256 76.6163 59.354 76.8123 59.55C77.0083 59.746 77.1063 59.984 77.1063 60.264V66.018C77.1063 66.298 77.0083 66.536 76.8123 66.732C76.6163 66.928 76.3783 67.026 76.0983 67.026H63.0783C62.7983 67.026 62.5603 67.124 62.3643 67.32C62.1683 67.516 62.0703 67.754 62.0703 68.034ZM86.9435 60.222C87.0555 59.97 87.2375 59.76 87.4895 59.592C87.7695 59.396 88.0635 59.298 88.3715 59.298H94.2515C94.5315 59.298 94.7975 59.396 95.0495 59.592C95.3295 59.76 95.5255 59.97 95.6375 60.222L107.902 88.782C108.014 89.034 107.986 89.3 107.818 89.58C107.678 89.86 107.384 90 106.936 90H99.7535C99.4455 90 99.1515 89.916 98.8715 89.748C98.6195 89.552 98.4235 89.328 98.2835 89.076L97.1495 86.556C97.0095 86.304 96.7995 86.094 96.5195 85.926C96.2675 85.73 96.0015 85.632 95.7215 85.632H86.8595C86.5515 85.632 86.2575 85.73 85.9775 85.926C85.7255 86.094 85.5435 86.304 85.4315 86.556L84.2555 89.076C84.1435 89.328 83.9475 89.552 83.6675 89.748C83.4155 89.916 83.1495 90 82.8695 90H75.6455C75.5055 90 75.3655 89.972 75.2255 89.916C75.0575 89.86 74.9315 89.776 74.8475 89.664C74.7355 89.552 74.6655 89.412 74.6375 89.244C74.6095 89.076 74.6515 88.88 74.7635 88.656L86.9435 60.222ZM89.4215 78.492H93.1595C93.4395 78.492 93.6355 78.408 93.7475 78.24C93.8875 78.044 93.8875 77.82 93.7475 77.568C93.4675 76.868 93.1315 76.056 92.7395 75.132C92.3475 74.18 91.9835 73.298 91.6475 72.486C91.5355 72.234 91.4095 72.108 91.2695 72.108C91.1295 72.108 91.0035 72.234 90.8915 72.486L88.7915 77.568C88.6795 77.82 88.6795 78.044 88.7915 78.24C88.9035 78.408 89.1135 78.492 89.4215 78.492ZM138.232 60.264V88.992C138.232 89.272 138.134 89.51 137.938 89.706C137.742 89.902 137.504 90 137.224 90H130.924C130.616 90 130.364 89.902 130.168 89.706C130 89.51 129.916 89.272 129.916 88.992V80.004C129.916 79.724 129.818 79.486 129.622 79.29C129.426 79.094 129.188 78.996 128.908 78.996H120.256C119.948 78.996 119.696 79.094 119.5 79.29C119.332 79.486 119.248 79.724 119.248 80.004V88.992C119.248 89.272 119.15 89.51 118.954 89.706C118.758 89.902 118.52 90 118.24 90H111.982C111.674 90 111.422 89.902 111.226 89.706C111.058 89.51 110.974 89.272 110.974 88.992V60.264C110.974 59.984 111.058 59.746 111.226 59.55C111.422 59.354 111.674 59.256 111.982 59.256H118.24C118.52 59.256 118.758 59.354 118.954 59.55C119.15 59.746 119.248 59.984 119.248 60.264V70.218C119.248 70.498 119.332 70.736 119.5 70.932C119.696 71.128 119.948 71.226 120.256 71.226H128.908C129.188 71.226 129.426 71.128 129.622 70.932C129.818 70.736 129.916 70.498 129.916 70.218V60.264C129.916 59.984 130 59.746 130.168 59.55C130.364 59.354 130.616 59.256 130.924 59.256H137.224C137.504 59.256 137.742 59.354 137.938 59.55C138.134 59.746 138.232 59.984 138.232 60.264ZM151.748 90H145.49C145.21 90 144.972 89.902 144.776 89.706C144.58 89.51 144.482 89.272 144.482 88.992V60.264C144.482 59.984 144.58 59.746 144.776 59.55C144.972 59.354 145.21 59.256 145.49 59.256H158.552C160.176 59.256 161.674 59.536 163.046 60.096C164.418 60.628 165.58 61.384 166.532 62.364C167.512 63.344 168.268 64.506 168.8 65.85C169.36 67.194 169.64 68.678 169.64 70.302C169.64 71.198 169.528 72.094 169.304 72.99C169.108 73.858 168.814 74.684 168.422 75.468C168.03 76.252 167.568 76.966 167.036 77.61C166.504 78.226 165.902 78.744 165.23 79.164C165.006 79.332 164.852 79.542 164.768 79.794C164.712 80.018 164.768 80.242 164.936 80.466C166 81.866 167.12 83.308 168.296 84.792C169.472 86.276 170.522 87.634 171.446 88.866C171.614 89.09 171.656 89.342 171.572 89.622C171.488 89.874 171.306 90 171.026 90H163.214C162.934 90 162.626 89.93 162.29 89.79C161.982 89.622 161.744 89.426 161.576 89.202C160.68 88.026 159.784 86.836 158.888 85.632C158.02 84.428 157.152 83.21 156.284 81.978C156.116 81.754 155.878 81.572 155.57 81.432C155.262 81.264 154.968 81.18 154.688 81.18H153.764C153.484 81.18 153.246 81.278 153.05 81.474C152.854 81.67 152.756 81.908 152.756 82.188V88.992C152.756 89.272 152.658 89.51 152.462 89.706C152.266 89.902 152.028 90 151.748 90ZM153.764 73.452H158.216C158.552 73.452 158.902 73.396 159.266 73.284C159.63 73.144 159.966 72.948 160.274 72.696C160.582 72.416 160.834 72.08 161.03 71.688C161.226 71.296 161.324 70.834 161.324 70.302C161.324 70.022 161.268 69.7 161.156 69.336C161.072 68.944 160.904 68.58 160.652 68.244C160.428 67.88 160.106 67.586 159.686 67.362C159.294 67.11 158.804 66.984 158.216 66.984H153.764C153.484 66.984 153.246 67.082 153.05 67.278C152.854 67.474 152.756 67.712 152.756 67.992V72.444C152.756 72.724 152.854 72.962 153.05 73.158C153.246 73.354 153.484 73.452 153.764 73.452ZM182.354 90H176.012C175.704 90 175.452 89.902 175.256 89.706C175.088 89.51 175.004 89.272 175.004 88.992V60.306C175.004 60.026 175.088 59.788 175.256 59.592C175.452 59.396 175.704 59.298 176.012 59.298H182.354C182.634 59.298 182.872 59.396 183.068 59.592C183.264 59.788 183.362 60.026 183.362 60.306V88.992C183.362 89.272 183.264 89.51 183.068 89.706C182.872 89.902 182.634 90 182.354 90ZM211.874 83.28V88.992C211.874 89.272 211.776 89.51 211.58 89.706C211.384 89.902 211.146 90 210.866 90H189.908C189.6 90 189.348 89.902 189.152 89.706C188.984 89.51 188.9 89.272 188.9 88.992V60.264C188.9 59.984 188.984 59.746 189.152 59.55C189.348 59.354 189.6 59.256 189.908 59.256H196.208C196.488 59.256 196.726 59.354 196.922 59.55C197.118 59.746 197.216 59.984 197.216 60.264V81.264C197.216 81.544 197.3 81.782 197.468 81.978C197.664 82.174 197.916 82.272 198.224 82.272H210.866C211.146 82.272 211.384 82.37 211.58 82.566C211.776 82.762 211.874 83 211.874 83.28Z" fill="#F40612"/>
</svg>
